<?xml version="1.0" standalone="no"?>
<!DOCTYPE svg PUBLIC "-//W3C//DTD SVG 20010904//EN"
 "http://www.w3.org/TR/2001/REC-SVG-20010904/DTD/svg10.dtd">
<svg version="1.0" xmlns="http://www.w3.org/2000/svg"
 width="200.000000pt" height="178.000000pt" viewBox="0 0 800.000000 712.000000"
 preserveAspectRatio="xMidYMid meet">

<g transform="translate(0.000000,712.000000) scale(0.100000,-0.100000)"
fill="#000000" stroke="none">
<path d="M3882 7100 c-76 -11 -45 -2 -994 -284 -417 -124 -767 -230 -778 -236
-54 -29 -64 -130 -18 -176 18 -18 201 -76 828 -263 443 -131 834 -247 870
-257 90 -25 309 -25 400 0 36 10 360 105 720 212 360 107 665 197 678 201 l22
5 0 -177 c0 -174 0 -178 -25 -207 -21 -25 -25 -39 -25 -99 0 -71 10 -105 39
-125 13 -10 9 -25 -32 -120 -55 -131 -52 -144 34 -157 74 -10 196 1 214 20 21
20 20 23 -30 139 l-45 103 25 25 c23 23 25 33 25 109 0 76 -2 87 -25 111 l-25
27 2 196 3 196 65 22 c70 23 110 64 110 112 0 41 -30 90 -63 106 -37 18 -1587
480 -1680 502 -83 19 -218 26 -295 15z"/>
<path d="M4770 5689 c-256 -76 -508 -148 -562 -159 -119 -25 -301 -27 -418 -4
-45 8 -293 78 -551 155 -258 76 -474 139 -479 139 -16 0 -12 -647 4 -693 41
-113 85 -142 332 -216 495 -148 704 -180 1047 -160 240 14 344 35 737 151 232
69 264 82 308 133 61 69 62 74 62 451 0 189 -3 344 -7 343 -5 0 -217 -63 -473
-140z"/>
<path d="M1337 4854 c-600 -108 -960 -756 -736 -1323 117 -294 360 -509 669
-593 72 -19 109 -23 245 -22 135 0 173 3 245 23 186 50 374 166 492 304 316
373 326 882 23 1264 -216 274 -586 411 -938 347z"/>
<path d="M6308 4855 c-504 -96 -853 -562 -798 -1067 25 -228 121 -429 280
-589 126 -126 277 -214 450 -261 72 -19 109 -23 245 -23 136 0 173 4 245 23
281 77 510 264 636 522 80 164 115 357 94 532 -48 416 -332 742 -738 849 -102
27 -308 34 -414 14z"/>
<path d="M3909 4369 c-251 -21 -511 -159 -668 -354 -400 -497 -236 -1233 336
-1506 142 -68 252 -92 423 -92 124 0 159 4 244 26 697 184 967 1019 510 1578
-152 185 -415 328 -638 345 -39 3 -82 6 -96 8 -14 1 -64 -1 -111 -5z"/>
<path d="M975 2624 c-405 -72 -730 -370 -833 -764 -11 -41 -45 -289 -77 -550
-48 -396 -55 -482 -46 -515 26 -96 84 -145 197 -169 260 -55 590 -97 901 -117
179 -11 806 -10 817 2 3 3 30 203 61 444 57 458 72 540 125 690 83 234 255
491 430 644 l61 53 -33 29 c-155 136 -337 222 -533 254 -127 21 -953 20 -1070
-1z"/>
<path d="M5990 2634 c-223 -38 -402 -118 -539 -241 l-54 -48 100 -100 c159
-159 270 -324 357 -528 66 -154 92 -285 151 -760 31 -243 58 -443 60 -446 3
-2 136 -6 297 -9 385 -6 749 15 1077 64 132 19 355 60 400 73 72 22 131 90
146 171 7 39 -97 926 -120 1026 -87 376 -382 674 -769 776 -77 21 -105 22
-581 24 -275 1 -511 0 -525 -2z"/>
<path d="M3420 2121 c-404 -87 -726 -411 -804 -807 -28 -138 -118 -926 -114
-987 5 -70 44 -131 104 -164 40 -22 250 -65 479 -98 694 -99 1455 -80 2139 52
112 22 149 33 185 57 56 39 91 102 91 166 0 105 -110 955 -135 1045 -99 355
-374 624 -743 728 -74 20 -99 21 -597 24 -472 2 -528 0 -605 -16z"/>
</g>
</svg>
