<?xml version="1.0" standalone="no"?>
<!DOCTYPE svg PUBLIC "-//W3C//DTD SVG 20010904//EN"
 "http://www.w3.org/TR/2001/REC-SVG-20010904/DTD/svg10.dtd">
<svg version="1.0" xmlns="http://www.w3.org/2000/svg"
 width="200.000000pt" height="186.000000pt" viewBox="0 0 200.000000 186.000000"
 preserveAspectRatio="xMidYMid meet">

<g transform="translate(0.000000,186.000000) scale(0.100000,-0.100000)"
fill="#000000" stroke="none">
<path d="M831 1846 c-49 -27 -50 -36 -51 -428 l0 -368 29 -32 c28 -31 32 -33
105 -33 42 0 76 -2 76 -5 0 -3 -24 -30 -54 -59 -51 -50 -54 -52 -67 -34 -29
39 -62 53 -126 53 l-63 0 0 46 c0 72 -20 125 -66 170 -53 53 -100 64 -283 64
-162 0 -221 -14 -268 -62 -59 -61 -63 -84 -63 -333 l0 -225 28 -31 c21 -24 38
-32 75 -36 l47 -6 0 -133 c0 -131 0 -133 26 -153 20 -16 41 -21 83 -21 32 0
62 5 68 11 8 8 17 8 31 0 11 -6 43 -11 71 -11 106 0 111 11 111 274 l0 204
133 4 c151 3 176 13 204 76 9 20 53 74 97 120 l81 82 403 0 c453 0 461 1 488
65 12 30 14 94 12 396 l-3 361 -33 29 -32 29 -518 0 c-410 -1 -522 -3 -541
-14z m709 -256 c0 -19 -7 -20 -255 -20 -248 0 -255 1 -255 20 0 19 7 20 255
20 248 0 255 -1 255 -20z m159 -149 c8 -5 11 -16 8 -25 -6 -14 -43 -16 -342
-16 -323 0 -335 1 -335 19 0 11 6 22 13 24 22 9 642 7 656 -2z m-139 -176 c26
-32 1 -35 -260 -35 -260 0 -279 3 -266 35 8 22 508 22 526 0z"/>
<path d="M265 1651 c-48 -22 -69 -44 -90 -94 -20 -49 -19 -92 5 -142 54 -111
194 -134 281 -46 88 87 65 227 -44 280 -53 26 -99 26 -152 2z"/>
<path d="M982 640 c-50 -30 -74 -76 -69 -131 13 -159 228 -184 278 -32 40 121
-99 230 -209 163z"/>
<path d="M1665 650 c-11 -4 -33 -22 -49 -39 -23 -24 -30 -42 -33 -83 -5 -69
20 -112 82 -139 61 -27 108 -18 156 30 48 48 57 95 30 156 -12 27 -33 52 -53
65 -34 21 -97 26 -133 10z"/>
<path d="M895 291 c-48 -12 -72 -29 -94 -65 -19 -30 -21 -47 -19 -128 l3 -93
270 0 270 0 3 88 c3 104 -12 145 -67 179 -33 21 -50 23 -186 25 -82 1 -163 -2
-180 -6z"/>
<path d="M1547 286 c-75 -28 -97 -67 -104 -181 -4 -64 -2 -83 9 -93 12 -9 80
-12 279 -10 l264 3 3 91 c2 80 0 94 -20 124 -48 70 -62 75 -236 78 -115 1
-167 -2 -195 -12z"/>
</g>
</svg>
