<?xml version="1.0" encoding="UTF-8"?>
<!DOCTYPE svg PUBLIC "-//W3C//DTD SVG 1.0//EN" "http://www.w3.org/TR/2001/REC-SVG-20010904/DTD/svg10.dtd" []>
<svg xmlns="http://www.w3.org/2000/svg" xmlns:xlink="http://www.w3.org/1999/xlink" 
     height="201.3" 
     preserveAspectRatio="xMidYMid meet" 
     version="1.0" 
     viewBox="397.0 378.2 3206.0 3226.6" 
     width="200" 
     zoomAndPan="magnify">
  <g id="change1_1">
    <path d="M908.14,2246.04h254.95c35.35,0,64.02-28.66,64.02-64.02v-254.95c0-35.35-28.66-64.02-64.02-64.02H908.14 c-35.35,0-64.02,28.66-64.02,64.02v254.95C844.12,2217.38,872.79,2246.04,908.14,2246.04z"/>
    <path d="M908.14,2773.13h254.95c35.35,0,64.02-28.66,64.02-64.02v-254.95c0-35.35-28.66-64.02-64.02-64.02H908.14 c-35.35,0-64.02,28.66-64.02,64.02v254.95C844.12,2744.47,872.79,2773.13,908.14,2773.13z"/>
    <path d="M908.14,3300.22h254.95c35.35,0,64.02-28.66,64.02-64.02v-254.95c0-35.35-28.66-64.02-64.02-64.02H908.14 c-35.35,0-64.02,28.66-64.02,64.02v254.95C844.12,3271.56,872.79,3300.22,908.14,3300.22z"/>
    <path d="M1551.06,2246.04h254.95c35.35,0,64.02-28.66,64.02-64.02v-254.95c0-35.35-28.66-64.02-64.02-64.02h-254.95 c-35.36,0-64.02,28.66-64.02,64.02v254.95C1487.05,2217.38,1515.71,2246.04,1551.06,2246.04z"/>
    <path d="M1551.06,2773.13h254.95c35.35,0,64.02-28.66,64.02-64.02v-254.95c0-35.35-28.66-64.02-64.02-64.02h-254.95 c-35.36,0-64.02,28.66-64.02,64.02v254.95C1487.05,2744.47,1515.71,2773.13,1551.06,2773.13z"/>
    <path d="M1551.06,3300.22h254.95c35.35,0,64.02-28.66,64.02-64.02v-254.95c0-35.35-28.66-64.02-64.02-64.02h-254.95 c-35.36,0-64.02,28.66-64.02,64.02v254.95C1487.05,3271.56,1515.71,3300.22,1551.06,3300.22z"/>
    <path d="M2193.99,2246.04h254.95c35.35,0,64.02-28.66,64.02-64.02v-254.95c0-35.35-28.66-64.02-64.02-64.02h-254.95 c-35.35,0-64.01,28.66-64.01,64.02v254.95C2129.97,2217.38,2158.63,2246.04,2193.99,2246.04z"/>
    <path d="M2448.94,2917.23h-254.95c-35.35,0-64.01,28.66-64.01,64.02v254.95c0,35.35,28.66,64.02,64.01,64.02h254.95 c35.35,0,64.02-28.66,64.02-64.02v-254.95C2512.95,2945.89,2484.29,2917.23,2448.94,2917.23z"/>
    <path d="M2836.91,2246.04h254.95c35.35,0,64.02-28.66,64.02-64.02v-254.95c0-35.35-28.66-64.02-64.02-64.02h-254.95 c-35.35,0-64.02,28.66-64.02,64.02v254.95C2772.89,2217.38,2801.55,2246.04,2836.91,2246.04z"/>
    <path d="M2836.91,2773.13h254.95c35.35,0,64.02-28.66,64.02-64.02v-254.95c0-35.35-28.66-64.02-64.02-64.02h-254.95 c-35.35,0-64.02,28.66-64.02,64.02v254.95C2772.89,2744.47,2801.55,2773.13,2836.91,2773.13z"/>
    <path d="M2851,378.18c-60.05,0-108.73,48.68-108.73,108.73V705.4H1263.34V486.91c0-60.05-48.68-108.73-108.73-108.73 c-60.05,0-108.73,48.68-108.73,108.73V705.4H703.19C534.35,705.4,397,842.75,397,1011.58v622.3v1664.76 c0,168.83,137.35,306.18,306.19,306.18h2593.63c168.83,0,306.18-137.35,306.18-306.18V1633.88v-622.3 c0-168.83-137.35-306.18-306.18-306.18h-337.09V486.91C2959.73,426.86,2911.05,378.18,2851,378.18z M1045.88,861.38v135 c0,60.05,48.68,108.73,108.73,108.73c60.05,0,108.73-48.68,108.73-108.73V861.38c39.4,31.78,64.61,80.44,64.61,135 c0,95.74-77.61,173.35-173.35,173.35c-95.74,0-173.35-77.61-173.35-173.35C981.26,941.82,1006.47,893.16,1045.88,861.38z M3452.15,3298.64c0,85.65-69.68,155.33-155.33,155.33H703.19c-85.65,0-155.33-69.68-155.33-155.33V1709.31h2904.29V3298.64z M3024.34,996.38c0,95.74-77.61,173.35-173.35,173.35c-95.74,0-173.35-77.61-173.35-173.35c0-54.56,25.21-103.22,64.61-135v134.99 c0,60.05,48.68,108.73,108.73,108.73s108.73-48.68,108.73-108.73v-135C2999.13,893.16,3024.34,941.82,3024.34,996.38z"/>
    <path d="M2301.29,2806.92l303.81-303.81c29.46-29.46,29.46-77.21,0-106.67c-29.46-29.46-77.21-29.46-106.67,0l-197.14,197.14 l-79.17-79.17c-29.45-29.45-77.21-29.46-106.67,0c-29.46,29.46-29.46,77.21,0,106.67L2301.29,2806.92z"/>
  </g>
</svg>