<?xml version="1.0" standalone="no"?>
<!DOCTYPE svg PUBLIC "-//W3C//DTD SVG 20010904//EN"
 "http://www.w3.org/TR/2001/REC-SVG-20010904/DTD/svg10.dtd">
<svg version="1.0" xmlns="http://www.w3.org/2000/svg"
 width="198.000000pt" height="200.000000pt" viewBox="0 0 198.000000 200.000000"
 preserveAspectRatio="xMidYMid meet">

<g transform="translate(0.000000,200.000000) scale(0.100000,-0.100000)"
fill="#000000" stroke="none">
<path d="M352 1977 c-21 -22 -22 -33 -22 -173 0 -144 1 -151 23 -172 32 -30
87 -29 115 1 21 22 22 33 22 173 0 144 -1 151 -23 172 -32 30 -87 29 -115 -1z"/>
<path d="M1488 1986 c-29 -22 -38 -63 -38 -180 0 -162 16 -196 93 -196 22 0
41 8 55 23 21 22 22 33 22 174 l0 152 -26 20 c-30 24 -80 27 -106 7z"/>
<path d="M115 1791 c-85 -39 -115 -100 -115 -231 l0 -90 985 0 985 0 0 103 c0
94 -2 107 -26 143 -43 66 -85 88 -176 93 l-78 3 0 -69 c0 -148 -96 -228 -214
-179 -57 24 -79 67 -84 163 l-5 83 -413 0 -414 0 0 -67 c-1 -123 -54 -193
-148 -193 -54 0 -97 22 -122 63 -16 25 -20 50 -20 115 l0 82 -57 0 c-35 0 -74
-8 -98 -19z"/>
<path d="M0 762 l0 -609 23 -44 c13 -24 43 -57 66 -74 l43 -30 709 -3 c503 -2
722 1 752 9 34 9 65 36 182 156 77 80 152 163 168 185 l27 41 0 489 0 488
-985 0 -985 0 0 -608z m1453 380 c32 -35 55 -66 52 -74 -9 -23 -625 -613 -643
-616 -10 -1 -97 68 -212 169 -185 162 -209 185 -210 201 0 14 133 168 147 168
14 0 58 -38 189 -162 40 -38 78 -68 86 -68 7 0 104 87 214 193 272 262 281
269 302 258 9 -5 43 -36 75 -69z m411 -661 c6 -9 -350 -391 -365 -391 -5 0 -9
67 -9 153 0 230 15 246 237 247 72 0 134 -4 137 -9z"/>
</g>
</svg>
