<?xml version="1.0" standalone="no"?>
<!DOCTYPE svg PUBLIC "-//W3C//DTD SVG 20010904//EN"
 "http://www.w3.org/TR/2001/REC-SVG-20010904/DTD/svg10.dtd">
<svg version="1.0" xmlns="http://www.w3.org/2000/svg"
 width="200.000000pt" height="225.352113" viewBox="0 0 710.000000 800.000000"
 preserveAspectRatio="xMidYMid meet">

<g transform="translate(0.000000,800.000000) scale(0.100000,-0.100000)"
fill="#000000" stroke="none">
<path d="M3360 7989 c-500 -57 -954 -334 -1235 -754 -580 -866 -260 -2040 680
-2495 133 -65 260 -108 416 -142 91 -19 133 -22 329 -22 196 0 238 3 330 23
395 85 733 283 977 574 438 523 532 1235 242 1847 -155 326 -438 620 -758 784
-311 159 -648 223 -981 185z"/>
<path d="M4086 3559 l-570 -1010 -17 33 c-10 18 -252 470 -538 1003 -467 871
-522 970 -543 968 -13 0 -70 -18 -128 -39 l-105 -39 -130 -130 c-159 -158
-241 -273 -340 -470 -83 -167 -142 -336 -179 -512 -29 -137 -59 -382 -54 -444
l3 -42 64 -13 c218 -45 428 -231 564 -500 87 -172 153 -434 164 -643 l6 -117
-82 -69 c-58 -49 -80 -73 -75 -84 49 -121 -74 -244 -186 -186 -69 36 -94 106
-62 178 30 67 85 91 172 74 31 -7 42 -2 102 43 l67 49 -5 83 c-46 698 -456
1180 -913 1073 -285 -68 -522 -372 -620 -795 -21 -89 -41 -249 -41 -323 0 -42
2 -45 66 -89 57 -40 70 -45 95 -38 63 18 139 -29 159 -98 31 -115 -97 -214
-198 -152 -64 39 -87 110 -57 175 13 30 13 30 -60 100 l-73 70 8 119 c17 228
69 431 155 611 66 135 119 210 224 315 103 102 185 156 281 187 67 21 63 10
75 183 20 289 105 611 226 852 85 169 155 274 278 417 l56 65 -80 -44 c-990
-538 -1635 -1513 -1785 -2698 l-12 -92 73 -101 c196 -275 456 -529 734 -718
332 -225 708 -395 1134 -512 673 -184 1517 -244 2316 -163 820 82 1498 306
2040 675 279 190 538 443 734 718 l73 101 -12 92 c-91 731 -427 1448 -930
1983 -279 297 -565 517 -935 721 l-70 38 43 -49 c172 -199 277 -354 372 -550
74 -152 125 -289 160 -431 l22 -90 62 -13 c101 -21 183 -66 262 -145 109 -108
157 -223 157 -371 0 -149 -55 -277 -162 -378 -113 -105 -216 -147 -366 -147
-289 0 -525 236 -525 525 0 196 115 381 290 468 40 21 79 37 88 37 22 0 10 65
-43 226 -116 353 -324 674 -601 925 -71 65 -243 199 -254 199 -3 0 -261 -455
-574 -1011z m556 -1626 l3 -178 178 -3 177 -2 0 -150 0 -150 -180 0 -180 0 0
-175 0 -175 -150 0 -150 0 0 175 0 175 -175 0 -175 0 0 150 0 150 175 0 175 0
0 173 c0 96 3 177 7 180 3 4 71 7 149 7 l144 0 2 -177z"/>
<path d="M5593 3040 c-64 -22 -98 -46 -147 -100 -61 -68 -80 -121 -81 -225 0
-79 4 -97 28 -146 37 -76 117 -150 192 -178 79 -30 195 -26 270 9 71 34 148
116 175 186 26 70 28 174 6 242 -33 98 -135 194 -236 222 -55 15 -150 11 -207
-10z"/>
</g>
</svg>
