<?xml version="1.0" standalone="no"?>
<!DOCTYPE svg PUBLIC "-//W3C//DTD SVG 20010904//EN"
 "http://www.w3.org/TR/2001/REC-SVG-20010904/DTD/svg10.dtd">
<svg version="1.0" xmlns="http://www.w3.org/2000/svg"
 width="200.000000pt" height="158.000000pt" viewBox="0 0 200.000000 158.000000"
 preserveAspectRatio="xMidYMid meet">

<g transform="translate(0.000000,158.000000) scale(0.100000,-0.100000)"
fill="#000000" stroke="none">
<path d="M545 1557 c-72 -41 -104 -134 -71 -210 31 -73 116 -116 189 -96 146
40 168 243 33 308 -55 27 -101 26 -151 -2z"/>
<path d="M1265 1557 c-72 -41 -104 -134 -71 -210 31 -73 116 -116 189 -96 147
40 168 243 31 309 -53 26 -100 25 -149 -3z"/>
<path d="M523 1161 c-61 -21 -126 -63 -148 -97 -19 -29 -19 -34 0 -34 25 0 88
-36 116 -67 82 -88 86 -222 10 -313 l-29 -34 46 -28 c26 -15 57 -35 69 -44 21
-15 22 -14 48 38 33 67 95 131 163 170 50 29 52 31 33 44 -75 53 -98 218 -41
296 l20 27 -24 17 c-69 44 -177 55 -263 25z"/>
<path d="M1275 1173 c-19 -5 -115 -44 -115 -47 0 0 11 -23 25 -50 45 -88 27
-204 -39 -265 -32 -30 -33 -37 -2 -45 34 -8 121 -80 156 -127 16 -22 37 -62
46 -87 10 -26 18 -48 19 -50 1 -1 19 13 40 32 20 19 56 45 80 57 l43 23 -33
43 c-95 124 -55 288 88 360 l38 19 -51 48 c-28 26 -72 57 -98 68 -46 21 -156
33 -197 21z"/>
<path d="M910 1117 c-51 -27 -90 -90 -90 -147 0 -57 39 -120 90 -147 73 -39
140 -25 197 40 93 106 11 277 -133 277 -11 0 -40 -10 -64 -23z"/>
<path d="M265 956 c-115 -52 -133 -225 -30 -292 117 -77 264 13 253 153 -7 86
-62 143 -145 150 -28 2 -61 -3 -78 -11z"/>
<path d="M1605 956 c-140 -62 -121 -276 28 -314 90 -24 176 31 198 126 29 127
-107 241 -226 188z"/>
<path d="M901 725 c-30 -9 -69 -24 -87 -35 -63 -40 -131 -131 -148 -201 -4
-19 3 -45 21 -85 21 -46 28 -79 31 -146 l4 -88 279 0 279 0 0 68 c0 38 7 93
16 122 63 211 -172 427 -395 365z"/>
<path d="M215 553 c-64 -23 -118 -65 -157 -121 -48 -70 -58 -118 -58 -284 l0
-148 331 0 331 0 -4 162 c-3 149 -6 168 -30 218 -31 68 -84 122 -151 157 -69
35 -188 42 -262 16z"/>
<path d="M1580 561 c-92 -30 -169 -97 -208 -181 -24 -50 -27 -69 -30 -217 l-4
-163 332 0 332 0 -4 168 c-3 153 -5 171 -27 217 -32 64 -99 131 -159 158 -51
22 -187 33 -232 18z"/>
</g>
</svg>
