<?xml version="1.0" encoding="utf-8"?>
<svg version="1.0" xmlns="http://www.w3.org/2000/svg" width="200.000000pt" height="209.150327pt" viewBox="0 0 765.000000 800.000000" preserveAspectRatio="xMidYMid meet">
  <path d="M 482 238.2 L 482 346.7 L 492.3 347.4 C 521.8 349.4 556.8 357.7 579.9 368.1 C 583.4 369.7 586.4 371 586.6 371 C 586.8 371 587 322.7 587 263.6 L 587 156.3 L 575.8 151.2 C 550 139.8 520.6 132.4 492.3 130.5 L 482 129.7 L 482 238.2 Z M 528.9 182 C 542.2 184.8 558.9 189.5 565.2 192.2 C 572.7 195.4 575.5 203.6 571 209.3 C 567 214.4 563.7 214.5 548.9 210 C 536.3 206.2 512.6 201 507.9 201 C 504 201 499.2 197.9 497.5 194.3 C 495.3 189.8 496.7 184.2 500.8 180.9 C 503.2 179 504.4 178.8 511 179.3 C 515.1 179.6 523.2 180.8 528.9 182 Z M 522 237.6 C 533.4 239.4 547.6 242.9 558.5 246.6 C 568.9 250 569.7 250.5 571.5 254 C 575.4 261.6 570.7 270.2 562.6 270.2 C 560.8 270.2 554.3 268.6 548 266.6 C 538.4 263.5 522.8 260.1 506.7 257.5 C 504.6 257.2 501.5 255.6 499.7 254 C 497 251.6 496.5 250.5 496.5 246.6 C 496.5 243 497.1 241.5 499.4 239.1 C 503.6 234.7 504.3 234.6 522 237.6 Z M 520.5 294 C 543.7 298 565.8 304.7 570.2 309.1 C 574.4 313.2 574.1 319.1 569.6 323.6 C 565.5 327.7 562.1 328 553.4 324.9 C 544.5 321.9 521.7 316.4 511.8 315 C 501.7 313.6 498.6 311.8 496.9 306.1 C 495.4 301.2 497.7 295.9 502.3 293.6 C 506.4 291.6 506.6 291.6 520.5 294 Z" fill="#000000" stroke="none"/>
  <path d="M 696.7 131.1 C 670.3 133.9 645.2 140.6 621.3 151.2 L 610 156.3 L 610 263.7 C 610 349.4 610.3 371.1 611.3 370.6 C 638 358.5 669.7 350.3 700.6 347.8 L 715 346.6 L 715 238.3 L 715 130 L 709.8 130.1 C 706.9 130.2 701 130.6 696.7 131.1 Z M 695.9 180.6 C 699 182.8 701.1 188.1 700.4 191.9 C 699.2 197.7 695.6 199.8 682.6 202 C 667.5 204.6 661.2 206.1 646.6 210.5 C 633.2 214.6 630.4 214.5 626.5 209.8 C 623.3 206 623.1 199.5 626 195.7 C 629 192 650 185.4 673 181 C 685.4 178.6 692.9 178.5 695.9 180.6 Z M 695.8 237.6 C 697.1 238.5 698.8 240.8 699.7 242.7 C 700.9 245.8 701 246.8 699.8 249.8 C 697.7 255.3 694.7 256.8 681.5 259 C 666.7 261.5 660.6 262.9 646.3 267.4 C 637 270.3 634.6 270.7 631.6 269.9 C 623.9 267.8 621.2 257.7 626.8 252 C 631 247.8 657.6 240.1 679.5 236.6 C 689.2 235.1 692.2 235.3 695.8 237.6 Z M 694.5 293.6 C 699.3 295.8 701.6 301.1 700.1 306.1 C 698.4 311.7 695.3 313.6 685.8 315 C 674.1 316.6 658.2 320.3 646.9 323.9 C 634.6 327.9 631.2 327.9 627.1 324.1 C 624.5 321.7 624 320.5 624 316.6 C 624 309.7 627.2 306.9 639 303.1 C 652.3 299 663.4 296.2 675.8 294 C 689.2 291.7 690.5 291.6 694.5 293.6 Z" fill="#000000" stroke="none"/>
  <path d="M 434.5 163.5 L 432 165.9 L 432 281.5 L 432 397.1 L 434.3 399.4 C 436.4 401.5 438 401.8 447.1 402.4 C 488.6 405.1 515.8 410.1 547.4 421 C 561.9 426.1 580.1 433.8 591.4 439.9 C 594.6 441.6 597.8 443 598.5 443 C 599.1 443 603.1 441.2 607.3 439 C 648 417.5 692.7 406.1 749.9 402.4 C 759 401.8 760.6 401.5 762.7 399.4 L 765 397.1 L 765 281.5 L 765 165.9 L 762.5 163.5 C 760.5 161.4 759.2 161 753.8 161 C 750.3 161 745.1 161.3 742.3 161.6 L 737 162.3 L 737 261.2 C 737 369.8 737.3 364.2 731 367.5 C 729.1 368.5 725.3 369 720.3 369 C 684.6 369 643.7 379 610.9 395.6 C 605.1 398.6 599.5 401 598.5 401 C 597.5 401 592.2 398.7 586.8 395.9 C 554.7 379.5 521 370.9 483 369.3 C 473.8 368.9 467.5 368.2 465.8 367.3 C 459.7 364.3 460 369.4 460 261.2 L 460 162.3 L 454.8 161.6 C 451.9 161.3 446.7 161 443.2 161 C 437.8 161 436.5 161.4 434.5 163.5 Z" fill="#000000" stroke="none"/>
  <g style="transform-origin: 252.227px 382.579px;" transform="matrix(1.09497, 0.005813, -0.005527, 1.04112, 23.8589, 15.8454)">
    <path d="M 161.5 30.5 C 94.7 53.3 72.1 61.4 70.8 63 C 69.1 65.1 69 68.6 69 109.1 C 69 150.3 68.9 153.1 67.1 156.2 C 64.3 161.1 63.7 165.2 65.3 169.7 C 66.7 173.7 66.6 174 60.7 188.7 L 54.8 203.7 L 56.5 207.3 C 57.6 209.6 59.2 211.2 61.2 211.9 C 62.9 212.5 71.6 213 80.7 213 C 98 213 101.7 212.2 104 208.1 C 105.7 204.8 105.2 202.4 99.5 188.2 C 94.1 175 94 174.3 95.1 169.9 C 96.5 164.5 95.7 159.2 93 155.7 C 91.1 153.3 91 151.5 91 117.1 C 91 97.2 91.1 81 91.3 81 C 91.4 81 127.2 93.2 170.9 108 C 214.6 122.9 251.3 135 252.5 135 C 255.8 135 431.1 75.2 433.1 73.4 C 436.9 70 435.8 62.3 431.3 60.5 C 423.6 57.6 255.3 0.8 253.2 0.5 C 251.5 0.3 218.9 10.9 161.5 30.5 Z" fill="#000000" stroke="none"/>
    <path d="M 142.2 152.7 L 142.5 183.4 L 152 185.8 C 164.8 188.9 186.3 192.5 204.5 194.7 C 225.6 197.2 279.2 197.1 300.5 194.6 C 322.2 192.1 358.9 185.4 362.3 183.3 C 363 182.9 363.4 122 362.6 122 C 362.4 122 339.5 129.7 311.9 139.1 C 284.2 148.4 259.4 156.5 256.9 157 C 250.1 158.3 245.8 157.1 191.6 138.6 C 164.7 129.5 142.5 122 142.3 122 C 142.1 122 142.1 135.8 142.2 152.7 Z" fill="#000000" stroke="none"/>
    <path d="M 136.6 209.6 C 135.5 217.8 136 234.5 137.5 243.6 C 144 280.6 166.9 311.4 200.5 328 C 242.3 348.8 290.7 343.2 327.1 313.4 C 354.4 291 370.2 255.1 368.7 218.8 C 368.4 212.4 367.9 206.7 367.6 206.2 C 367.3 205.7 363.1 206.2 357.6 207.5 C 345.3 210.5 322.2 214.5 304 216.7 C 283.1 219.3 220.9 219.2 200 216.7 C 178.2 213.9 145 207.9 138.5 205.4 C 137.7 205.1 137.1 206.4 136.6 209.6 Z" fill="#000000" stroke="none"/>
    <path d="M 230 420.9 C 190.3 428.2 155.6 454.1 137.6 489.8 C 133.4 498.1 126.7 517.3 127.2 519.7 C 127.4 520.5 129.6 522 132.1 522.9 C 148.1 529 162 545.2 171.5 568.8 C 187.3 607.8 184.3 634.7 162.8 645.5 C 158.9 647.4 155.1 649 154.3 649 C 153.6 649 151.1 650.2 148.9 651.7 C 140.3 657.4 129 653.9 125.5 644.6 C 122.5 636.8 124.8 630.2 132 625.2 C 136.2 622.4 143.2 622.2 147.7 625 L 150.9 626.9 L 153.9 624.4 C 158.1 620.9 159.4 616.2 158.7 606.6 C 157.5 589 147.6 565 136.8 553.5 C 128.9 545 124.4 542.6 116.5 542.6 C 109.9 542.6 105.9 544.2 100 549.3 C 87.3 560.3 75.4 586.9 74.3 607.1 C 73.7 618 75.2 623.1 79.9 625.4 C 82.2 626.6 82.9 626.5 85.5 624.9 C 89.1 622.6 96 622.4 99.9 624.5 C 107.7 628.5 110.8 637.6 107 645.4 C 102.6 654.7 91.1 657.4 82.9 651.2 C 81.6 650.2 78.7 648.8 76.5 648.2 C 51.2 640.7 44.9 615.2 58.7 575.6 C 67.5 550.4 80.8 532.7 97 524.8 C 103 521.9 103.9 521.1 104.5 518.1 C 104.8 516.3 106.3 510.9 107.6 506.1 C 116.6 475.3 134.3 448.9 159.5 429 C 168.4 422 167.6 422 152 428.8 C 96.1 453.3 52.7 494.8 25.9 549.5 C 9.9 582.3 1.9 613.8 0.4 650.5 C -0.1 662.5 0.1 666.9 1.4 672.4 C 6.1 692 21.4 709.4 46.8 723.8 C 139.7 776.5 349.4 778.6 450.3 727.9 C 470.7 717.6 489.2 702.1 496.7 689 C 503.2 677.7 504.4 672.1 504.3 655.5 C 503.9 564.8 449.9 477.8 368.2 436.1 C 356.1 430 339.1 422.6 338.4 423.2 C 338.2 423.4 341.2 425.9 344.9 428.8 C 361.6 441.6 379.2 463.4 388.4 483 C 397.9 503.4 401.9 520.1 402.7 543.7 L 403.3 560 L 408.5 562.9 C 415.7 567 421.6 574.7 423.4 582.5 C 423.8 584.1 424.1 588.3 424.1 591.8 C 424 603.4 416.9 614.4 406.2 619.7 C 401.3 622.1 399.3 622.5 392 622.5 C 384.7 622.5 382.7 622.1 377.8 619.7 C 367.1 614.4 360.9 605.1 360.2 592.9 C 359.4 579.5 364.9 568.9 375.7 562.8 L 381.3 559.7 L 380.7 545.6 C 379.6 517.9 373.4 498 359.2 476.4 C 340.8 448.5 311.8 428.8 278 421.5 C 265.9 418.9 242.6 418.6 230 420.9 Z" fill="#000000" stroke="none"/>
  </g>
</svg>