<?xml version="1.0" encoding="utf-8"?>
<svg version="1.0" xmlns="http://www.w3.org/2000/svg" width="200.000000pt" height="200.000000pt" viewBox="0 0 800.000000 800.000000" preserveAspectRatio="xMidYMid meet">
  <path d="M 625.576 20.471 C 567.258 26.619 516.912 67.233 497.93 123.333 L 495.881 129.483 L 499.372 133.81 C 511.37 148.613 520.71 167.135 525.647 186.038 C 529.746 201.904 530.203 207.673 530.203 242.594 L 530.203 274.478 L 536.126 280.095 C 577.662 319.798 635.448 333.234 689.209 315.623 C 746.007 297.099 786.861 246.01 792.935 185.962 C 798.479 130.241 771.825 75.052 724.214 43.928 C 696.195 25.632 659.441 16.903 625.576 20.471 Z M 660.809 61.843 C 664.758 62.526 672.124 64.349 677.135 66.018 C 686.854 69.207 700.068 75.811 699.688 77.33 C 699.537 77.936 668.249 122.574 665.669 125.763 C 665.593 125.915 662.936 125.155 659.746 124.092 C 647.749 119.917 636.055 119.765 625.348 123.637 C 622.919 124.548 620.26 125.383 619.425 125.611 C 618.134 125.839 615.019 121.815 601.05 102.077 C 591.708 88.945 584.04 77.784 583.964 77.33 C 583.585 75.811 596.873 69.207 606.516 66.018 C 614.566 63.361 624.74 61.236 633.853 60.325 C 639.092 59.794 653.293 60.629 660.809 61.843 Z M 654.962 143.982 C 671.668 152.18 677.135 172.677 666.731 188.163 C 655.038 205.7 628.613 205.7 616.919 188.163 C 609.021 176.473 610.01 161.366 619.196 151.345 C 626.183 143.678 632.562 141.021 643.041 141.325 C 649.04 141.477 650.634 141.857 654.962 143.982 Z M 591.33 175.03 C 593.076 188.771 598.24 199.398 607.124 207.749 L 611.376 211.696 L 594.975 237.128 L 578.648 262.559 L 575.232 260.053 C 573.333 258.764 568.929 254.892 565.36 251.627 C 544.783 232.345 532.785 206.763 530.658 177.308 L 530.203 171.462 L 560.576 171.462 L 590.875 171.462 L 591.33 175.03 Z M 752.994 176.928 C 751.247 199.246 745.4 216.403 733.478 234.092 C 728.543 241.303 714.646 255.878 708.57 260.053 L 705.003 262.559 L 688.678 237.128 L 672.275 211.696 L 676.072 208.129 C 685.336 199.474 690.576 188.847 692.322 175.03 L 692.779 171.462 L 723.152 171.462 L 753.447 171.462 L 752.994 176.928 Z" fill="#000000" stroke="none" style=""/>
  <g transform="matrix(0.117544, 0, 0, -0.11484, -332.338, 801.778)" fill="#000000" stroke="none" style="">
    <path d="M5240 6494 c-14 -2 -68 -12 -120 -20 -543 -92 -1037 -496 -1244 -1019 -113 -288 -145 -630 -86 -928 175 -887 1019 -1471 1910 -1321 619 105 1138 569 1314 1176 76 263 85 553 25 823 -140 629 -640 1122 -1279 1262 -95 20 -148 25 -305 28 -104 2 -201 2 -215 -1z"/>
    <path d="M5215 2754 c-656 -65 -1217 -334 -1660 -795 -430 -447 -690 -1054 -711 -1659 -7 -182 2 -209 76 -248 l44 -22 2455 0 c2434 0 2455 0 2496 20 27 13 49 34 65 62 22 39 23 47 17 179 -30 663 -309 1280 -783 1740 -399 385 -880 622 -1436 705 -98 14 -476 27 -563 18z"/>
  </g>
</svg>