<?xml version="1.0" standalone="no"?>
<!DOCTYPE svg PUBLIC "-//W3C//DTD SVG 20010904//EN"
 "http://www.w3.org/TR/2001/REC-SVG-20010904/DTD/svg10.dtd">
<svg version="1.0" xmlns="http://www.w3.org/2000/svg"
 width="200.000000pt" height="191.000000pt" viewBox="0 0 200.000000 191.000000"
 preserveAspectRatio="xMidYMid meet">

<g transform="translate(0.000000,191.000000) scale(0.100000,-0.100000)"
fill="#000000" stroke="none">
<path d="M828 1894 c-51 -27 -58 -57 -58 -239 l0 -165 57 0 c55 0 61 3 136 61
83 65 124 82 166 72 68 -16 108 -74 98 -144 -7 -50 -12 -56 -126 -147 -126
-100 -130 -102 -238 -102 l-93 0 0 -99 c0 -55 3 -106 6 -115 8 -22 24 -20 24
2 0 10 14 39 30 64 74 112 217 148 337 87 56 -29 108 -92 124 -152 6 -23 13
-48 15 -54 3 -10 70 -13 291 -13 316 0 317 0 348 60 13 24 15 93 15 420 0 430
0 428 -60 464 -25 14 -83 16 -537 16 -430 -1 -512 -3 -535 -16z m792 -179 c12
-33 76 -60 110 -47 21 7 30 4 56 -20 28 -26 30 -33 22 -56 -13 -36 14 -99 47
-112 21 -8 25 -16 25 -50 0 -34 -4 -42 -26 -52 -32 -15 -56 -71 -49 -112 5
-25 1 -36 -23 -59 -25 -24 -33 -27 -50 -18 -28 15 -107 -18 -115 -48 -4 -17
-13 -21 -50 -21 -39 0 -46 3 -51 23 -8 32 -77 60 -114 46 -22 -9 -30 -6 -55
19 -25 26 -28 32 -17 51 16 32 -14 109 -46 117 -21 5 -24 12 -24 51 0 37 4 46
20 50 32 8 64 78 52 113 -9 24 -7 31 18 55 22 21 34 26 57 21 39 -9 96 16 111
48 10 22 18 26 52 26 34 0 42 -4 50 -25z"/>
<path d="M1493 1550 c-68 -41 -88 -112 -54 -184 23 -47 82 -86 129 -86 34 0
84 24 111 54 32 34 41 119 17 165 -35 67 -135 93 -203 51z"/>
<path d="M301 1868 c-59 -31 -81 -73 -81 -158 0 -78 34 -157 82 -191 41 -29
106 -36 147 -15 92 48 136 207 85 308 -36 71 -152 99 -233 56z"/>
<path d="M992 1490 l-90 -70 -370 0 c-390 0 -409 -2 -471 -48 -56 -42 -61 -67
-61 -307 0 -240 5 -264 61 -308 l34 -26 5 256 c4 221 7 257 21 266 9 6 24 7
33 4 15 -6 16 -60 16 -607 l0 -601 88 3 87 3 3 326 c2 345 3 349 47 333 13 -5
15 -52 15 -335 l0 -329 95 0 95 0 0 564 0 564 46 56 45 56 124 0 123 0 49 36
c180 137 195 153 172 196 -30 57 -60 51 -167 -32z"/>
<path d="M955 1111 c-71 -42 -113 -128 -100 -199 4 -19 19 -59 35 -89 16 -30
32 -74 36 -98 l6 -45 113 0 113 0 11 50 c6 28 24 77 41 110 36 72 39 126 9
188 -32 65 -95 102 -173 102 -42 0 -71 -6 -91 -19z"/>
<path d="M940 595 c10 -13 33 -15 113 -13 69 2 102 7 105 16 3 9 -24 12 -113
12 -104 0 -116 -2 -105 -15z"/>
<path d="M1005 500 c3 -5 21 -10 40 -10 19 0 37 5 40 10 4 6 -12 10 -40 10
-28 0 -44 -4 -40 -10z"/>
<path d="M930 413 c-105 -41 -79 -192 33 -193 52 0 97 43 97 94 0 62 -76 120
-130 99z"/>
<path d="M1343 410 c-31 -13 -57 -57 -57 -98 0 -47 49 -92 100 -92 50 0 94 45
94 95 0 47 -13 71 -50 90 -32 17 -54 18 -87 5z"/>
<path d="M1758 404 c-85 -46 -51 -184 45 -184 43 0 92 38 100 77 7 40 -16 89
-52 107 -37 20 -58 20 -93 0z"/>
<path d="M935 175 c-5 -2 -22 -6 -38 -9 -35 -8 -101 -67 -117 -106 -24 -58
-19 -60 185 -60 180 0 185 1 185 20 0 82 -138 181 -215 155z"/>
<path d="M1330 169 c-50 -15 -97 -54 -121 -101 -34 -67 -33 -68 175 -68 120 0
187 4 191 11 4 6 -4 31 -17 57 -41 80 -144 126 -228 101z"/>
<path d="M1746 165 c-22 -8 -51 -23 -65 -33 -30 -22 -76 -106 -66 -121 4 -7
71 -11 191 -11 208 0 209 1 175 68 -25 49 -71 86 -126 101 -50 14 -61 13 -109
-4z"/>
</g>
</svg>
